
      <svg data-logo="logo" xmlns="http://www.w3.org/2000/svg" viewBox="0 0 215 36">
        <g id="logogram" transform="translate(0, 1) rotate(0) "><path d="M15.4992 0H36.5808L21.0816 22.9729H0L15.4992 0Z" fill="#527575"/><path d="M16.4224 25.102L10.4192 34H32.5008L48 11.0271H31.7024L22.2064 25.102H16.4224Z" fill="#D87943"/></g>
        <g id="logotype" transform="translate(54, 5)"><path fill="#111111" d="M12.30 26L7.75 26L7.75 1.50L11.46 1.50L23.40 15.67Q23.82 16.16 24.22 16.67Q24.62 17.18 25.01 17.70L25.01 17.70Q24.90 16.93 24.87 15.87Q24.83 14.80 24.83 13.71L24.83 13.71L24.83 1.50L29.31 1.50L29.31 26L26.13 26L13.73 11.26Q13.32 10.77 12.91 10.27Q12.51 9.76 12.13 9.23L12.13 9.23Q12.23 10.00 12.27 11.07Q12.30 12.14 12.30 13.22L12.30 13.22L12.30 26ZM41.46 26.45L41.46 26.45Q38.66 26.45 36.45 25.16Q34.25 23.86 33.00 21.71Q31.76 19.56 31.76 16.93L31.76 16.93Q31.76 14.31 33.00 12.14Q34.25 9.97 36.45 8.67Q38.66 7.38 41.46 7.38L41.46 7.38Q44.29 7.38 46.48 8.67Q48.67 9.97 49.91 12.14Q51.15 14.31 51.15 16.93L51.15 16.93Q51.15 19.56 49.91 21.71Q48.67 23.86 46.48 25.16Q44.29 26.45 41.46 26.45ZM41.46 22.15L41.46 22.15Q42.96 22.15 44.08 21.43Q45.20 20.71 45.81 19.52Q46.43 18.34 46.43 16.93L46.43 16.93Q46.43 15.50 45.81 14.31Q45.20 13.12 44.08 12.40Q42.96 11.68 41.46 11.68L41.46 11.68Q39.95 11.68 38.83 12.40Q37.71 13.12 37.10 14.31Q36.48 15.50 36.48 16.93L36.48 16.93Q36.48 18.34 37.10 19.52Q37.71 20.71 38.83 21.43Q39.95 22.15 41.46 22.15ZM61.37 26.45L61.37 26.45Q58.89 26.45 56.84 25.18Q54.79 23.90 53.58 21.75Q52.38 19.59 52.38 16.97L52.38 16.97Q52.38 15.01 53.08 13.28Q53.78 11.54 55.00 10.23Q56.23 8.92 57.85 8.17Q59.48 7.41 61.37 7.41L61.37 7.41Q63.72 7.41 65.05 8.29Q66.38 9.16 67.11 10.60L67.11 10.60L67.11 0.45L71.84 0.45L71.84 26L67.25 26L67.25 23.02Q66.52 24.57 65.17 25.51Q63.82 26.45 61.37 26.45ZM62.14 22.18L62.14 22.18Q63.72 22.18 64.85 21.47Q65.99 20.75 66.62 19.56Q67.25 18.37 67.25 16.97L67.25 16.97Q67.25 15.53 66.62 14.34Q65.99 13.15 64.85 12.42Q63.72 11.68 62.14 11.68L62.14 11.68Q60.64 11.68 59.50 12.40Q58.36 13.12 57.73 14.31Q57.10 15.50 57.10 16.93L57.10 16.93Q57.10 18.30 57.73 19.51Q58.36 20.71 59.50 21.45Q60.64 22.18 62.14 22.18ZM83.35 26.45L83.35 26.45Q80.55 26.45 78.42 25.16Q76.28 23.86 75.11 21.71Q73.94 19.56 73.94 16.93L73.94 16.93Q73.94 14.31 75.16 12.12Q76.39 9.93 78.50 8.64Q80.62 7.34 83.35 7.34L83.35 7.34Q86.08 7.34 88.16 8.64Q90.25 9.93 91.42 12.12Q92.59 14.31 92.59 16.93L92.59 16.93Q92.59 17.32 92.56 17.74Q92.52 18.16 92.45 18.61L92.45 18.61L78.84 18.61Q79.22 20.23 80.39 21.24Q81.57 22.25 83.35 22.25L83.35 22.25Q84.89 22.25 86.03 21.55Q87.17 20.86 87.80 19.80L87.80 19.80L91.47 22.57Q90.39 24.29 88.22 25.37Q86.05 26.45 83.35 26.45ZM83.28 11.40L83.28 11.40Q81.60 11.40 80.41 12.42Q79.22 13.43 78.84 15.08L78.84 15.08L87.83 15.08Q87.45 13.57 86.24 12.49Q85.03 11.40 83.28 11.40ZM100.01 26L95.29 26L95.29 11.82L92.73 11.82L92.73 7.80L95.29 7.80L95.29 6.57Q95.29 3.81 96.93 2.13Q98.58 0.45 101.34 0.45L101.34 0.45L103.30 0.45L103.30 4.47L102.08 4.47Q100.01 4.47 100.01 6.64L100.01 6.64L100.01 7.80L103.72 7.80L103.72 11.82L100.01 11.82L100.01 26ZM110.02 26L105.30 26L105.30 0.45L110.02 0.45L110.02 26ZM121.82 26.45L121.82 26.45Q119.02 26.45 116.81 25.16Q114.61 23.86 113.36 21.71Q112.12 19.56 112.12 16.93L112.12 16.93Q112.12 14.31 113.36 12.14Q114.61 9.97 116.81 8.67Q119.02 7.38 121.82 7.38L121.82 7.38Q124.65 7.38 126.84 8.67Q129.03 9.97 130.27 12.14Q131.51 14.31 131.51 16.93L131.51 16.93Q131.51 19.56 130.27 21.71Q129.03 23.86 126.84 25.16Q124.65 26.45 121.82 26.45ZM121.82 22.15L121.82 22.15Q123.32 22.15 124.44 21.43Q125.56 20.71 126.17 19.52Q126.79 18.34 126.79 16.93L126.79 16.93Q126.79 15.50 126.17 14.31Q125.56 13.12 124.44 12.40Q123.32 11.68 121.82 11.68L121.82 11.68Q120.31 11.68 119.19 12.40Q118.07 13.12 117.46 14.31Q116.85 15.50 116.85 16.93L116.85 16.93Q116.85 18.34 117.46 19.52Q118.07 20.71 119.19 21.43Q120.31 22.15 121.82 22.15ZM142.15 26L136.73 26L131.06 7.80L136.59 7.80L138.93 18.13Q139.07 18.79 139.23 19.51Q139.39 20.23 139.49 20.89L139.49 20.89Q139.70 19.49 140.09 18.09L140.09 18.09L142.75 7.80L148.17 7.80L151.01 18.09Q151.39 19.49 151.60 20.89L151.60 20.89Q151.71 20.23 151.86 19.51Q152.02 18.79 152.16 18.13L152.16 18.13L154.68 7.80L159.83 7.80L154.16 26L149.05 26L146.07 15.64Q145.65 14.27 145.44 12.91L145.44 12.91Q145.34 13.57 145.20 14.27Q145.06 14.97 144.88 15.64L144.88 15.64L142.15 26Z"/></g>
        
      </svg>
    