<svg data-logo="logo" xmlns="http://www.w3.org/2000/svg" viewBox="0 0 207 42">
        <g style="opacity: 1;" id="logogram" transform="translate(0, 1) rotate(0)"><path d="M24 0H16V12.0632C15.9663 14.2434 14.1885 16 12.0005 16H0V24H8.68629C10.808 24 12.8429 23.1571 14.3431 21.6569L21.6569 14.3431C23.1571 12.8429 24 10.808 24 8.68629V0Z" fill="url(#paint0_linear_7697_8782)"></path><path d="M16 40H24V27.9368C24.0337 25.7566 25.8115 24 27.9995 24H40V16H31.3137C29.192 16 27.1571 16.8429 25.6569 18.3431L18.3431 25.6569C16.8429 27.1571 16 29.192 16 31.3137V40Z" fill="url(#paint1_linear_7697_8782)"></path></g>
        <g style="opacity: 1;" id="logotype" transform="translate(46, 8)"><path fill="#535146" d="M18.29 26L13.88 26L5.68 1.50L11.29 1.50L15.21 15.36Q15.52 16.41 15.78 17.48Q16.05 18.54 16.19 19.56L16.19 19.56Q16.33 18.54 16.57 17.46Q16.82 16.38 17.20 15.36L17.20 15.36L22.07 1.50L26.48 1.50L31.34 15.36Q32.11 17.49 32.43 19.56L32.43 19.56Q32.56 18.54 32.79 17.48Q33.02 16.41 33.34 15.36L33.34 15.36L37.26 1.50L42.86 1.50L34.67 26L30.26 26L25.29 12.17Q24.59 10.25 24.27 8.15L24.27 8.15Q24.10 9.16 23.85 10.18Q23.61 11.19 23.26 12.17L23.26 12.17L18.29 26ZM50.73 26.45L50.73 26.45Q47.93 26.45 45.73 25.16Q43.52 23.86 42.28 21.71Q41.04 19.56 41.04 16.93L41.04 16.93Q41.04 14.31 42.28 12.14Q43.52 9.97 45.73 8.67Q47.93 7.38 50.73 7.38L50.73 7.38Q53.57 7.38 55.75 8.67Q57.94 9.97 59.18 12.14Q60.43 14.31 60.43 16.93L60.43 16.93Q60.43 19.56 59.18 21.71Q57.94 23.86 55.75 25.16Q53.57 26.45 50.73 26.45ZM50.73 22.15L50.73 22.15Q52.24 22.15 53.36 21.43Q54.48 20.71 55.09 19.52Q55.70 18.34 55.70 16.93L55.70 16.93Q55.70 15.50 55.09 14.31Q54.48 13.12 53.36 12.40Q52.24 11.68 50.73 11.68L50.73 11.68Q49.23 11.68 48.11 12.40Q46.99 13.12 46.37 14.31Q45.76 15.50 45.76 16.93L45.76 16.93Q45.76 18.34 46.37 19.52Q46.99 20.71 48.11 21.43Q49.23 22.15 50.73 22.15ZM67.25 26L62.53 26L62.53 7.80L67.11 7.80L67.11 11.26Q67.57 9.30 68.97 8.27Q70.37 7.24 72.75 7.38L72.75 7.38L72.75 11.82L72.08 11.82Q70.05 11.82 68.65 13.12Q67.25 14.41 67.25 16.69L67.25 16.69L67.25 26ZM79.05 26L74.32 26L74.32 0.45L79.05 0.45L79.05 15.15L85.87 7.80L92.59 7.80L84.02 16.27L92.63 26L86.36 26L79.05 17.35L79.05 26ZM99.91 26L95.18 26L95.18 11.82L92.63 11.82L92.63 7.80L95.18 7.80L95.18 6.57Q95.18 3.81 96.83 2.13Q98.47 0.45 101.24 0.45L101.24 0.45L103.20 0.45L103.20 4.47L101.97 4.47Q99.91 4.47 99.91 6.64L99.91 6.64L99.91 7.80L103.62 7.80L103.62 11.82L99.91 11.82L99.91 26ZM109.92 26L105.19 26L105.19 0.45L109.92 0.45L109.92 26ZM121.71 26.45L121.71 26.45Q118.91 26.45 116.71 25.16Q114.50 23.86 113.26 21.71Q112.02 19.56 112.02 16.93L112.02 16.93Q112.02 14.31 113.26 12.14Q114.50 9.97 116.71 8.67Q118.91 7.38 121.71 7.38L121.71 7.38Q124.55 7.38 126.73 8.67Q128.92 9.97 130.16 12.14Q131.41 14.31 131.41 16.93L131.41 16.93Q131.41 19.56 130.16 21.71Q128.92 23.86 126.73 25.16Q124.55 26.45 121.71 26.45ZM121.71 22.15L121.71 22.15Q123.22 22.15 124.34 21.43Q125.46 20.71 126.07 19.52Q126.68 18.34 126.68 16.93L126.68 16.93Q126.68 15.50 126.07 14.31Q125.46 13.12 124.34 12.40Q123.22 11.68 121.71 11.68L121.71 11.68Q120.21 11.68 119.09 12.40Q117.97 13.12 117.35 14.31Q116.74 15.50 116.74 16.93L116.74 16.93Q116.74 18.34 117.35 19.52Q117.97 20.71 119.09 21.43Q120.21 22.15 121.71 22.15ZM142.05 26L136.62 26L130.95 7.80L136.48 7.80L138.83 18.13Q138.97 18.79 139.12 19.51Q139.28 20.23 139.39 20.89L139.39 20.89Q139.60 19.49 139.98 18.09L139.98 18.09L142.64 7.80L148.07 7.80L150.90 18.09Q151.29 19.49 151.50 20.89L151.50 20.89Q151.60 20.23 151.76 19.51Q151.92 18.79 152.06 18.13L152.06 18.13L154.58 7.80L159.72 7.80L154.05 26L148.94 26L145.97 15.64Q145.55 14.27 145.34 12.91L145.34 12.91Q145.23 13.57 145.09 14.27Q144.95 14.97 144.78 15.64L144.78 15.64L142.05 26Z"></path></g>
        <defs xmlns="http://www.w3.org/2000/svg">
<linearGradient id="paint0_linear_7697_8782" x1="20" y1="-0.997096" x2="20" y2="33.7931" gradientUnits="userSpaceOnUse">
<stop stop-color="#E9E6DC"></stop>
<stop offset="1" stop-color="#C96442"></stop>
</linearGradient>
<linearGradient id="paint1_linear_7697_8782" x1="20" y1="-0.997096" x2="20" y2="33.7931" gradientUnits="userSpaceOnUse">
<stop stop-color="#E9E6DC"></stop>
<stop offset="1" stop-color="#C96442"></stop>
</linearGradient>
</defs>
      </svg>